<svg width="30" height="31" viewBox="0 0 30 31" fill="none" xmlns="http://www.w3.org/2000/svg">
<path fill-rule="evenodd" clip-rule="evenodd" d="M11.4999 1.29213H10.2127L14.6925 23.1579L14.3076 23.2367L9.81166 1.29213H9.49986V1.17427H11.4999V1.29213ZM13.7127 1.29213L18.1925 23.1576L17.8076 23.2365L13.3117 1.29213H12.9999V1.17427H14.9999V1.29213H13.7127ZM14.9999 28.5547C14.9999 29.4423 14.3284 30.1618 13.4999 30.1618C12.6715 30.1618 11.9999 29.4423 11.9999 28.5547C11.9999 27.6671 12.6715 26.9475 13.4999 26.9475C14.3284 26.9475 14.9999 27.6671 14.9999 28.5547ZM25 28.5547C25 29.4423 24.3284 30.1618 23.5 30.1618C22.6715 30.1618 22 29.4423 22 28.5547C22 27.6671 22.6715 26.9475 23.5 26.9475C24.3284 26.9475 25 27.6671 25 28.5547ZM21.6925 23.1576L17.2127 1.29213H18.4999V1.17427H16.4999V1.29213H16.8117L21.3076 23.2365L21.6925 23.1576ZM20.7127 1.29213L25.1925 23.1576L24.8076 23.2365L20.3117 1.29213H19.9999V1.17427H21.9999V1.29213H20.7127ZM0.999974 2.98371C0.783005 2.98371 0.607117 3.1596 0.607117 3.37657C0.607117 3.59354 0.783005 3.76943 0.999974 3.76943H5.17944L9.61511 25.4197C9.65256 25.6025 9.8134 25.7337 9.99998 25.7337H29C29.2169 25.7337 29.3928 25.5578 29.3928 25.3409C29.3928 25.1239 29.2169 24.948 29 24.948H10.3205L5.88484 3.29772C5.84739 3.11494 5.68655 2.98371 5.49997 2.98371H0.999974Z" fill="#333333"/>
</svg>
