<svg width="49" height="30" viewBox="0 0 49 30" fill="none" xmlns="http://www.w3.org/2000/svg">
<path d="M24.3731 8.43751H5.62687C4.86609 8.43751 4.18593 8.89173 3.89484 9.59485C3.60374 10.298 3.76312 11.1 4.29609 11.633L13.5717 21.0534C13.5886 21.0708 13.6064 21.0877 13.6247 21.1036C14.3264 21.712 15.3825 21.7116 16.0833 21.1036C16.0983 21.0909 16.1128 21.0774 16.1264 21.0638L25.6988 11.6381C26.2369 11.1 26.3967 10.298 26.1052 9.59485C25.8141 8.89173 25.1344 8.43751 24.3731 8.43751V8.43751ZM14.8547 19.6842L5.61797 10.313C5.61797 10.313 5.62078 10.3125 5.62687 10.3125L24.3783 10.3073L14.8547 19.6842Z" fill="black"/>
<path fill-rule="evenodd" clip-rule="evenodd" d="M24.6269 21.5624H43.3731C44.1344 21.5624 44.8141 21.1082 45.1052 20.4051C45.3967 19.702 45.2369 18.8999 44.6988 18.3618L35.1264 8.93618C35.1128 8.92259 35.0983 8.90899 35.0833 8.89634C34.3825 8.28837 33.3264 8.2879 32.6247 8.89634C32.6064 8.91228 32.5886 8.92915 32.5717 8.94649L23.2961 18.367C22.7631 18.8999 22.6037 19.702 22.8948 20.4051C23.1859 21.1082 23.8661 21.5624 24.6269 21.5624Z" fill="black"/>
</svg>
