<svg width="30" height="30" viewBox="0 0 30 30" fill="none" xmlns="http://www.w3.org/2000/svg">
<path d="M21.5362 0.682434C18.9824 0.682434 16.5917 1.83872 15 3.77606C13.4083 1.83865 11.0177 0.682434 8.46382 0.682434C3.79688 0.682434 0 4.47925 0 9.14626C0 12.8007 2.17912 17.0277 6.4767 21.7097C9.78402 25.3128 13.3818 28.1026 14.4057 28.8719L14.9998 29.3182L15.5939 28.8719C16.6178 28.1027 20.2157 25.313 23.5231 21.7099C27.8208 17.0278 30 12.8008 30 9.14626C30 4.47925 26.2031 0.682434 21.5362 0.682434ZM22.0659 20.3722C19.3455 23.3358 16.4188 25.7315 14.9998 26.8356C13.5809 25.7315 10.6543 23.3357 7.93391 20.3721C4.03754 16.1272 1.97802 12.2454 1.97802 9.14626C1.97802 5.56999 4.88756 2.66046 8.46382 2.66046C10.8173 2.66046 12.9903 3.94314 14.135 6.00799L15 7.56839L15.865 6.00799C17.0096 3.9432 19.1827 2.66046 21.5362 2.66046C25.1124 2.66046 28.022 5.56993 28.022 9.14626C28.022 12.2455 25.9624 16.1274 22.0659 20.3722Z" fill="#BE9344"/>
</svg>
