<svg width="32" height="32" viewBox="0 0 32 32" fill="none" xmlns="http://www.w3.org/2000/svg">
<path d="M15.9999 31.9999C24.8365 31.9999 31.9999 24.8365 31.9999 15.9999C31.9999 7.16342 24.8365 0 15.9999 0C7.16342 0 0 7.16342 0 15.9999C0 24.8365 7.16342 31.9999 15.9999 31.9999Z" fill="#5F98D1"/>
<path d="M25.9883 9.21582H5.97248L13.2236 16.7662L15.3161 18.8849C14.1776 18.6246 14.1072 18.4625 13.6027 18.0506C13.3381 17.8345 12.8268 17.2473 12.0503 16.4543C9.62653 13.9793 5.51367 9.77944 5.51367 9.77944V22.2058L6.03023 22.7223L5.97242 22.7825L15.1676 31.9776C15.4433 31.9918 15.7208 31.9991 16.0001 31.9991C24.8366 31.9991 32 24.8357 32 15.9992C32 15.7338 31.9931 15.47 31.9804 15.2079L25.9883 9.21582Z" fill="#3A6DA1"/>
<path d="M5.51367 9.7796V22.206L11.5735 15.9677L5.51367 9.7796Z" fill="white"/>
<path d="M26.4868 9.7796V22.206L20.457 15.9928L26.4868 9.7796Z" fill="white"/>
<path d="M5.97266 9.21588H25.9884L18.1219 17.407C17.5621 17.9899 16.7887 18.3194 15.9806 18.3194C15.1724 18.3194 14.3991 17.9899 13.8392 17.407L5.97266 9.21588Z" fill="white"/>
<path d="M18.5759 17.8416C17.9009 18.5443 16.955 18.9475 15.9807 18.9475C15.0064 18.9475 14.0604 18.5445 13.3855 17.8417L12.0512 16.4523L5.97266 22.7815H25.9886L19.9101 16.4523L18.5759 17.8416Z" fill="white"/>
</svg>
