<svg width="32" height="32" viewBox="0 0 32 32" fill="none" xmlns="http://www.w3.org/2000/svg">
<path d="M15.9999 31.9996C24.8365 31.9996 31.9999 24.8363 31.9999 15.9998C31.9999 7.16336 24.8365 0 15.9999 0C7.16342 0 0 7.16336 0 15.9998C0 24.8363 7.16342 31.9996 15.9999 31.9996Z" fill="#238CF8"/>
<path d="M31.9971 16.147L19.1247 3.27466L4.6582 22.5516L6.40301 24.3149L7.14063 27.4862L10.7852 31.1307C12.4196 31.6938 14.1734 32.0003 15.999 32.0003C24.7866 32.0003 31.9183 24.9159 31.9971 16.147Z" fill="#0768DD"/>
<path d="M5.98438 6.47855V25.0187C5.98438 26.7892 7.41968 28.2245 9.19023 28.2245H22.8093C24.5798 28.2245 26.0151 26.7892 26.0151 25.0187V10.1623L19.1255 3.27271H9.19023C7.41968 3.27271 5.98438 4.708 5.98438 6.47855Z" fill="white"/>
<path d="M26.0177 10.1622V25.0187C26.0177 26.7892 24.5825 28.2244 22.812 28.2244H16.002V3.27258H19.128L26.0177 10.1622Z" fill="#EAE1DC"/>
<path d="M26.0165 10.1622L19.127 3.27258V10.1622H26.0165Z" fill="#CEC5C0"/>
<path d="M26.0871 22.9668H5.91322C4.75953 22.9668 3.82422 22.0316 3.82422 20.8778V15.4393C3.82422 14.2856 4.75947 13.3503 5.91322 13.3503H26.0871C27.2408 13.3503 28.1761 14.2856 28.1761 15.4393V20.8778C28.1761 22.0316 27.2408 22.9668 26.0871 22.9668Z" fill="#FF807D"/>
<path d="M28.1755 15.4397V20.8784C28.1755 22.0321 27.2405 22.9671 26.0868 22.9671H16V13.3503H26.0868C27.2405 13.3503 28.1755 14.286 28.1755 15.4397Z" fill="#FC3E53"/>
<path d="M21.3881 16.842V15.9045H19V17.6602V18.5977V20.4212H19.9375V18.5977H21.2729V17.6602H19.9375V16.842H21.3881Z" fill="#EAE1DC"/>
<path d="M16.0249 15.9432H14.5642V15.9494H14.5625L14.5651 16.4213C14.5653 16.5304 14.5676 17.7762 14.5676 18.1575C14.5676 18.644 14.5721 19.9125 14.5721 19.9125L14.5738 20.3813L15.0426 20.3796C15.0726 20.3794 15.7795 20.3767 16.062 20.3717C17.1309 20.3531 17.9066 19.4234 17.9066 18.1613C17.9066 16.8346 17.1504 15.9432 16.0249 15.9432ZM16.0457 19.4344C15.9238 19.4366 15.7152 19.4383 15.5192 19.4396L15.5051 16.8807H16.0249C16.9011 16.8807 16.9691 17.861 16.9691 18.1614C16.9691 19.0296 16.5053 19.4264 16.0457 19.4344Z" fill="white"/>
<path d="M17.9087 18.1614C17.9087 16.8346 17.1525 15.9432 16.0271 15.9432H16V16.8807H16.0271C16.9032 16.8807 16.9713 17.861 16.9713 18.1614C16.9713 19.0297 16.5075 19.4264 16.0479 19.4344C16.0332 19.4347 16.0171 19.4349 16 19.4352V20.3728C16.0231 20.3725 16.0447 20.3722 16.0642 20.3718C17.133 20.3531 17.9087 19.4235 17.9087 18.1614Z" fill="#EAE1DC"/>
<path d="M12.084 15.8882H11.5488H11.0801H10.6113V20.4312H11.5488V18.8626C11.7459 18.8616 11.9592 18.8606 12.084 18.8606C12.9145 18.8606 13.5901 18.1939 13.5901 17.3744C13.5901 16.555 12.9145 15.8882 12.084 15.8882ZM12.084 17.9232C11.96 17.9232 11.7493 17.9241 11.5532 17.9251C11.5522 17.722 11.5513 17.502 11.5513 17.3745C11.5513 17.2662 11.5507 17.0385 11.5502 16.8257H12.084C12.3922 16.8257 12.6527 17.077 12.6527 17.3745C12.6527 17.6719 12.3922 17.9232 12.084 17.9232Z" fill="white"/>
</svg>
