<svg width="30" height="30" viewBox="0 0 30 30" fill="none" xmlns="http://www.w3.org/2000/svg">
<g clip-path="url(#clip0)">
<path d="M29.6194 27.8661L20.0405 18.2872C21.5877 16.3602 22.514 13.9134 22.514 11.25C22.514 5.03713 17.4769 0 11.264 0C5.05114 0 0.0140076 5.03713 0.0140076 11.25C0.0140076 17.4629 5.05114 22.5 11.264 22.5C13.9129 22.5 16.3475 21.5839 18.2697 20.052L27.8516 29.6339C28.3398 30.1221 29.1312 30.1221 29.6194 29.6339C30.1076 29.1457 30.1076 28.3543 29.6194 27.8661ZM2.51409 11.25C2.51409 6.41783 6.43196 2.50002 11.2641 2.50002C16.0962 2.50002 20.0141 6.41783 20.0141 11.25C20.0141 13.6731 19.0288 15.8662 17.4372 17.4507C17.437 17.4509 17.4369 17.451 17.4367 17.4512C17.4367 17.4512 17.4366 17.4513 17.4365 17.4514C15.8542 19.0264 13.6728 20 11.2641 20C6.43196 20 2.51409 16.0822 2.51409 11.25Z" fill="black"/>
</g>
<defs>
<clipPath id="clip0">
<rect width="30" height="30" fill="white"/>
</clipPath>
</defs>
</svg>
