<svg width="32" height="32" viewBox="0 0 32 32" fill="none" xmlns="http://www.w3.org/2000/svg">
<path d="M15.9999 31.9999C24.8365 31.9999 31.9999 24.8365 31.9999 15.9999C31.9999 7.16342 24.8365 0 15.9999 0C7.16342 0 0 7.16342 0 15.9999C0 24.8365 7.16342 31.9999 15.9999 31.9999Z" fill="#6F3FAA"/>
<path d="M22.9415 8.77772C19.047 7.8371 15.1456 6.73685 11.1517 8.13472C8.56587 9.10441 8.56587 11.9058 8.67362 14.2761C8.67362 14.9226 7.91943 15.7846 8.24262 16.5388C8.88906 18.6936 9.4278 20.8485 11.6904 21.9259C12.0137 22.1414 11.6904 22.5724 11.9059 22.8956C11.7982 22.8956 11.5827 23.0034 11.5827 23.1111C11.5827 23.6275 11.8144 24.4175 11.6605 24.9267L18.5358 31.7992C25.604 30.6736 31.1282 24.92 31.9054 17.7417L22.9415 8.77772Z" fill="#512D84"/>
<path d="M24.4631 11.2456L24.4578 11.2244C24.0304 9.49613 22.103 7.64163 20.333 7.25582L20.3131 7.2517C17.4502 6.70557 14.5474 6.70557 11.6852 7.2517L11.6646 7.25582C9.89528 7.64163 7.96785 9.49626 7.53979 11.2244L7.53504 11.2456C7.00655 13.6591 7.00655 16.1069 7.53504 18.5205L7.53979 18.5416C7.94967 20.1961 9.73347 21.9655 11.4374 22.452V24.3813C11.4374 25.0796 12.2883 25.4225 12.7722 24.9186L14.7269 22.8868C15.1509 22.9105 15.575 22.9237 15.9991 22.9237C17.4402 22.9237 18.8819 22.7874 20.313 22.5144L20.3329 22.5103C22.1029 22.1245 24.0303 20.2698 24.4578 18.5416L24.463 18.5205C24.9915 16.1069 24.9915 13.6593 24.4631 11.2456ZM22.9162 18.1705C22.6307 19.2981 21.1674 20.6998 20.0046 20.9588C18.4825 21.2483 16.9482 21.372 15.4154 21.3296C15.3849 21.3287 15.3556 21.3406 15.3344 21.3625C15.1169 21.5857 13.9072 22.8276 13.9072 22.8276L12.3893 24.3856C12.2783 24.5013 12.0833 24.4225 12.0833 24.2628V21.0668C12.0833 21.014 12.0456 20.9692 11.9937 20.959C11.9934 20.9588 11.9931 20.9588 11.9928 20.9588C10.8301 20.6998 9.36722 19.298 9.08128 18.1705C8.6056 15.9888 8.6056 13.7772 9.08128 11.5956C9.36722 10.468 10.8301 9.06626 11.9928 8.80726C14.6513 8.30163 17.3468 8.30163 20.0047 8.80726C21.168 9.06626 22.6308 10.468 22.9162 11.5956C23.3924 13.7773 23.3924 15.9889 22.9162 18.1705Z" fill="white"/>
<path d="M18.5291 19.6463C18.3504 19.592 18.1801 19.5555 18.0218 19.49C16.3823 18.8098 14.8736 17.9323 13.6786 16.5872C12.9989 15.8223 12.467 14.9588 12.0174 14.0449C11.8042 13.6115 11.6245 13.1612 11.4413 12.7137C11.2743 12.3057 11.5203 11.8842 11.7793 11.5767C12.0223 11.2882 12.3351 11.0674 12.6739 10.9046C12.9383 10.7776 13.199 10.8509 13.3921 11.0749C13.8095 11.5594 14.193 12.0687 14.5034 12.6303C14.6943 12.9757 14.6419 13.398 14.2959 13.633C14.2117 13.6902 14.1351 13.7573 14.0568 13.8218C13.9881 13.8784 13.9234 13.9355 13.8763 14.012C13.7903 14.1521 13.7861 14.3174 13.8415 14.4697C14.2682 15.6423 14.9874 16.5542 16.1677 17.0453C16.3565 17.1239 16.5462 17.2153 16.7638 17.19C17.1281 17.1475 17.2461 16.7477 17.5015 16.5389C17.7511 16.3348 18.0701 16.3322 18.3389 16.5023C18.6078 16.6725 18.8684 16.8552 19.1276 17.0398C19.3819 17.2211 19.6351 17.3983 19.8697 17.605C20.0953 17.8036 20.173 18.0643 20.0459 18.3338C19.8134 18.8276 19.475 19.2383 18.9869 19.5006C18.8491 19.5745 18.6845 19.5984 18.5291 19.6463C18.3504 19.592 18.6845 19.5984 18.5291 19.6463Z" fill="white"/>
<path d="M16.0036 10.3401C18.1479 10.4002 19.9092 11.8233 20.2866 13.9433C20.351 14.3045 20.3738 14.6737 20.4025 15.0404C20.4145 15.1946 20.3271 15.3411 20.1608 15.3432C19.9889 15.3452 19.9116 15.2014 19.9003 15.0473C19.8783 14.7422 19.863 14.4356 19.8209 14.1331C19.599 12.5357 18.3252 11.2141 16.7352 10.9306C16.4959 10.8879 16.2512 10.8767 16.0088 10.8513C15.8556 10.8352 15.6549 10.826 15.621 10.6355C15.5926 10.4758 15.7273 10.3486 15.8794 10.3405C15.9206 10.338 15.9621 10.34 16.0036 10.3401C18.148 10.4002 15.9621 10.34 16.0036 10.3401Z" fill="white"/>
<path d="M19.2634 14.5649C19.2598 14.5917 19.258 14.6547 19.2422 14.7139C19.1853 14.9292 18.8588 14.9561 18.7838 14.7389C18.7615 14.6745 18.7581 14.6011 18.758 14.5317C18.7573 14.0776 18.6586 13.6238 18.4295 13.2286C18.1941 12.8224 17.8343 12.4811 17.4125 12.2744C17.1573 12.1495 16.8815 12.0718 16.6019 12.0256C16.4797 12.0054 16.3562 11.9932 16.2334 11.9761C16.0845 11.9554 16.005 11.8606 16.0122 11.7139C16.0187 11.5766 16.1192 11.4776 16.2689 11.4862C16.761 11.514 17.2364 11.6206 17.674 11.8522C18.5636 12.3234 19.0719 13.0671 19.2203 14.0602C19.227 14.1052 19.2377 14.1497 19.2412 14.1949C19.2495 14.3062 19.2549 14.4178 19.2634 14.5649C19.2598 14.5916 19.2549 14.4178 19.2634 14.5649Z" fill="white"/>
<path d="M17.9299 14.5143C17.7505 14.5175 17.6545 14.4181 17.6359 14.2538C17.6231 14.1391 17.6129 14.0229 17.5855 13.9112C17.5316 13.6914 17.4148 13.4878 17.2299 13.3531C17.1427 13.2895 17.0437 13.2432 16.9402 13.2132C16.8086 13.1751 16.6719 13.1856 16.5407 13.1535C16.3981 13.1186 16.3192 13.0031 16.3417 12.8694C16.362 12.7476 16.4804 12.6526 16.6135 12.6623C17.4449 12.7223 18.0391 13.1521 18.1239 14.1309C18.1299 14.2 18.1369 14.273 18.1216 14.3391C18.0952 14.4521 18.0115 14.5088 17.9299 14.5143C17.7504 14.5175 18.0115 14.5088 17.9299 14.5143Z" fill="white"/>
<path d="M24.4641 11.245L24.4589 11.2239C24.2193 10.2551 23.5081 9.24668 22.6178 8.47943L21.4141 9.54618C22.1298 10.1165 22.7431 10.9066 22.9173 11.5949C23.3936 13.7766 23.3936 15.9882 22.9173 18.1699C22.6319 19.2975 21.1684 20.6992 20.0058 20.9582C18.4836 21.2477 16.9492 21.3714 15.4165 21.329C15.386 21.3281 15.3567 21.34 15.3355 21.3619C15.1179 21.5851 13.9083 22.827 13.9083 22.827L12.3903 24.385C12.2793 24.5007 12.0843 24.4221 12.0843 24.2622V21.0662C12.0843 21.0134 12.0466 20.9686 11.9947 20.9584C11.9944 20.9584 11.9942 20.9582 11.9939 20.9582C11.3331 20.8111 10.5756 20.2946 9.99211 19.6694L8.80273 20.7234C9.54555 21.5314 10.5036 22.1847 11.4382 22.4516V24.3808C11.4382 25.0791 12.2892 25.422 12.7731 24.9181L14.7277 22.8863C15.1517 22.91 15.5758 22.9232 16 22.9232C17.4411 22.9232 18.8828 22.7869 20.3139 22.5139L20.3339 22.5099C22.1039 22.1241 24.0313 20.2696 24.4588 18.5412L24.464 18.5201C24.9926 16.1063 24.9926 13.6587 24.4641 11.245Z" fill="#D1D1D1"/>
<path d="M18.5292 19.6457C18.6858 19.5967 18.3491 19.5901 18.5292 19.6457V19.6457Z" fill="white"/>
<path d="M19.8705 17.6032C19.636 17.3966 19.3826 17.2193 19.1284 17.0381C18.8693 16.8534 18.6086 16.6707 18.3397 16.5005C18.0709 16.3304 17.752 16.333 17.5023 16.5371C17.247 16.7459 17.129 17.1457 16.7646 17.1882C16.547 17.2136 16.3573 17.1221 16.1685 17.0436C15.4423 16.7414 14.8913 16.2794 14.4748 15.6961L13.5898 16.4805C13.6199 16.5153 13.6486 16.551 13.6792 16.5854C14.8743 17.9305 16.3831 18.808 18.0224 19.4882C18.1806 19.5538 18.351 19.5903 18.5298 19.6445C18.351 19.5902 18.6853 19.5967 18.5298 19.6445C18.6853 19.5967 18.8498 19.5726 18.9877 19.4988C19.4759 19.2365 19.8142 18.8258 20.0467 18.332C20.1738 18.0625 20.0961 17.8019 19.8705 17.6032Z" fill="#D1D1D1"/>
<path d="M16.0099 10.342C16.0081 10.342 16.0063 10.3416 16.0045 10.3416C16.0027 10.3413 16.005 10.3416 16.0099 10.342Z" fill="white"/>
<path d="M16.0039 10.3392C16.0057 10.3392 16.0075 10.3394 16.0093 10.3394C16.1283 10.3437 18.064 10.3977 16.0039 10.3392Z" fill="white"/>
<path d="M19.0805 11.6143L18.7031 11.9487C19.2961 12.5256 19.705 13.2901 19.8219 14.1315C19.8639 14.4341 19.8793 14.7406 19.9014 15.0457C19.9125 15.1999 19.9898 15.3437 20.1618 15.3417C20.3282 15.3396 20.4156 15.1932 20.4035 15.039C20.3748 14.6723 20.352 14.3029 20.2877 13.9418C20.1225 13.0138 19.692 12.2193 19.0805 11.6143Z" fill="#D1D1D1"/>
<path d="M19.2206 14.0559C19.1125 13.3323 18.8123 12.7418 18.3137 12.2919L17.9375 12.6253C18.1321 12.798 18.3004 13.0008 18.43 13.2245C18.659 13.6197 18.7577 14.0735 18.7585 14.5276C18.7586 14.597 18.7619 14.6704 18.7842 14.7349C18.8594 14.9523 19.1858 14.9253 19.2426 14.7099C19.2584 14.6506 19.2602 14.5876 19.2638 14.5609C19.2602 14.5877 19.2551 14.4139 19.2638 14.5609C19.2551 14.4139 19.2499 14.3022 19.2415 14.1907C19.2381 14.1454 19.2273 14.1009 19.2206 14.0559Z" fill="#D1D1D1"/>
<path d="M19.2616 14.5637C19.2512 14.4161 19.2573 14.5904 19.2616 14.5637V14.5637Z" fill="white"/>
<path d="M17.9312 14.5164C17.934 14.516 17.9367 14.5128 17.9394 14.5121C17.9318 14.5121 17.9202 14.5126 17.9082 14.5135C17.916 14.5139 17.9231 14.5165 17.9312 14.5164Z" fill="white"/>
<path d="M17.9275 14.5168C17.9194 14.517 17.9123 14.5155 17.9046 14.5151C17.8659 14.5165 17.826 14.5191 17.9275 14.5168Z" fill="white"/>
<path d="M17.9374 14.5119C17.9347 14.5126 17.9322 14.5156 17.9297 14.516C17.9494 14.513 17.9477 14.5119 17.9374 14.5119Z" fill="white"/>
<path d="M17.551 12.9708L17.168 13.3103C17.1891 13.3231 17.2098 13.3364 17.2298 13.351C17.4147 13.4857 17.5315 13.6893 17.5854 13.9091C17.6128 14.0208 17.6229 14.1369 17.6359 14.2516C17.6536 14.4087 17.7427 14.5052 17.9069 14.5109C17.9188 14.5106 17.9306 14.5103 17.938 14.5102C18.017 14.5015 18.0962 14.4461 18.1215 14.3369C18.1368 14.2708 18.1298 14.1977 18.1238 14.1287C18.0761 13.5815 17.8693 13.2061 17.551 12.9708Z" fill="#D1D1D1"/>
</svg>
