<svg width="40" height="30" viewBox="0 0 40 30" fill="none" xmlns="http://www.w3.org/2000/svg">
<path d="M6.55078 11.9629H3.80957L3.27637 14H1.15039L4.26074 4.04688H6.09961L9.23047 14H7.08398L6.55078 11.9629ZM4.24707 10.2881H6.10645L5.17676 6.74023L4.24707 10.2881ZM5.51172 25V21.418H4.45898L2.98926 25H0.822266L2.58594 20.6934C1.76562 20.1237 1.35547 19.2669 1.35547 18.123C1.35547 17.1387 1.63118 16.3799 2.18262 15.8467C2.73861 15.3135 3.52474 15.0469 4.54102 15.0469H7.52832V25H5.51172ZM3.37207 18.2803C3.37207 18.8317 3.47005 19.2327 3.66602 19.4834C3.86198 19.7295 4.16732 19.8525 4.58203 19.8525H5.51172V16.7217H4.51367C3.7526 16.7217 3.37207 17.2412 3.37207 18.2803Z" fill="black"/>
<path fill-rule="evenodd" clip-rule="evenodd" d="M15.6269 8.43757H34.3731C35.1344 8.43757 35.8141 8.89179 36.1052 9.59491C36.3967 10.298 36.2369 11.1001 35.6988 11.6382L26.1264 21.0638C26.1128 21.0774 26.0983 21.091 26.0833 21.1037C25.3825 21.7116 24.3264 21.7121 23.6247 21.1037C23.6064 21.0877 23.5886 21.0708 23.5717 21.0535L14.2961 11.633C13.7631 11.1001 13.6037 10.298 13.8948 9.59491C14.1859 8.89179 14.8661 8.43757 15.6269 8.43757Z" fill="#333333"/>
</svg>
