<svg width="49" height="30" viewBox="0 0 49 30" fill="none" xmlns="http://www.w3.org/2000/svg">
<path d="M24.3732 8.43732H5.62693C4.86615 8.43732 4.18599 8.89154 3.8949 9.59467C3.60381 10.2978 3.76318 11.0998 4.29615 11.6328L13.5718 21.0533C13.5887 21.0706 13.6065 21.0875 13.6247 21.1034C14.3265 21.7119 15.3826 21.7114 16.0833 21.1034C16.0983 21.0908 16.1129 21.0772 16.1265 21.0636L25.6988 11.6379C26.2369 11.0998 26.3968 10.2978 26.1052 9.59467C25.8141 8.89154 25.1344 8.43732 24.3732 8.43732ZM14.8547 19.684L5.61803 10.3128C5.61803 10.3128 5.62084 10.3123 5.62693 10.3123L24.3783 10.3072L14.8547 19.684Z" fill="black"/>
<path fill-rule="evenodd" clip-rule="evenodd" d="M24.6269 21.5627H43.3732C44.1344 21.5627 44.8141 21.1085 45.1052 20.4053C45.3968 19.7022 45.2369 18.9002 44.6988 18.3621L35.1265 8.93643C35.1129 8.92283 35.0983 8.90924 35.0833 8.89658C34.3826 8.28861 33.3265 8.28814 32.6247 8.89658C32.6065 8.91252 32.5887 8.92939 32.5718 8.94674L23.2962 18.3672C22.7632 18.9002 22.6038 19.7022 22.8949 20.4053C23.186 21.1085 23.8662 21.5627 24.6269 21.5627Z" fill="black"/>
</svg>
