<svg width="49" height="30" viewBox="0 0 49 30" fill="none" xmlns="http://www.w3.org/2000/svg">
<path d="M24.3731 8.24681H5.62687C4.86609 8.24681 4.18593 8.69077 3.89484 9.378C3.60374 10.0652 3.76312 10.8491 4.29609 11.3701L13.5717 20.5776C13.5886 20.5946 13.6064 20.6111 13.6247 20.6267C14.3264 21.2214 15.3825 21.2209 16.0833 20.6267C16.0983 20.6143 16.1128 20.601 16.1264 20.5877L25.6988 11.3751C26.2369 10.8491 26.3967 10.0652 26.1052 9.378C25.8141 8.69077 25.1344 8.24681 24.3731 8.24681V8.24681ZM14.8547 19.2394L5.61797 10.0799C5.61797 10.0799 5.62078 10.0794 5.62687 10.0794L24.3783 10.0744L14.8547 19.2394Z" fill="#BE9344"/>
<path fill-rule="evenodd" clip-rule="evenodd" d="M24.6269 21.0752H43.3731C44.1344 21.0752 44.8141 20.6312 45.1052 19.944C45.3967 19.2567 45.2369 18.4728 44.6988 17.9469L35.1264 8.73424C35.1128 8.72095 35.0983 8.70766 35.0833 8.69529C34.3825 8.10107 33.3264 8.10061 32.6247 8.69529C32.6064 8.71087 32.5886 8.72737 32.5717 8.74432L23.2961 17.9519C22.7631 18.4728 22.6037 19.2567 22.8948 19.944C23.1859 20.6312 23.8661 21.0752 24.6269 21.0752Z" fill="#BE9344"/>
</svg>
