<svg width="30" height="30" viewBox="0 0 30 30" fill="none" xmlns="http://www.w3.org/2000/svg">
<path d="M21.5362 0.681641C18.9824 0.681641 16.5917 1.83793 15 3.77527C13.4083 1.83786 11.0177 0.681641 8.46382 0.681641C3.79688 0.681641 0 4.47845 0 9.14546C0 12.7999 2.17912 17.0269 6.4767 21.7089C9.78402 25.312 13.3818 28.1018 14.4057 28.8711L14.9998 29.3174L15.5939 28.8712C16.6178 28.1019 20.2157 25.3122 23.5231 21.7091C27.8208 17.027 30 12.8 30 9.14546C30 4.47845 26.2031 0.681641 21.5362 0.681641ZM22.0659 20.3714C19.3455 23.335 16.4188 25.7307 14.9998 26.8348C13.5809 25.7307 10.6543 23.3349 7.93391 20.3713C4.03754 16.1264 1.97802 12.2446 1.97802 9.14546C1.97802 5.5692 4.88756 2.65966 8.46382 2.65966C10.8173 2.65966 12.9903 3.94234 14.135 6.0072L15 7.5676L15.865 6.0072C17.0096 3.94241 19.1827 2.65966 21.5362 2.65966C25.1124 2.65966 28.022 5.56914 28.022 9.14546C28.022 12.2447 25.9624 16.1266 22.0659 20.3714Z" fill="black"/>
</svg>
