<svg width="24" height="22" viewBox="0 0 24 22" fill="none" xmlns="http://www.w3.org/2000/svg">
<path d="M2.51509 2.50816L2.51548 2.50777C3.14217 1.87917 3.88046 1.38022 4.68992 1.03751L4.69058 1.03724C5.53014 0.680379 6.43018 0.497879 7.33858 0.500019L7.33976 0.500021C8.61554 0.50002 9.8601 0.857388 10.9421 1.5328L10.9421 1.53281C11.201 1.69441 11.4467 1.87172 11.6793 2.06477L11.9986 2.3298L12.318 2.06477C12.5506 1.87172 12.7962 1.69441 13.0551 1.53281L13.0551 1.5328C14.1371 0.857388 15.3817 0.50002 16.6575 0.50002C17.5772 0.50002 18.4662 0.680024 19.3067 1.03724L19.3072 1.03747C20.1196 1.38162 20.852 1.87659 21.4819 2.50792L21.4826 2.50859C22.1086 3.13359 22.6093 3.87881 22.9557 4.70234C23.316 5.55908 23.5 6.46819 23.5 7.40512C23.5 8.2848 23.3245 9.21186 22.9678 10.1663L2.51509 2.50816ZM2.51509 2.50816C1.88975 3.134 1.38906 3.87918 1.04155 4.7023L2.51509 2.50816ZM18.0338 16.8744L18.0337 16.8744C16.7619 18.0763 15.4943 19.094 14.5304 19.8201C14.0488 20.1828 13.644 20.4721 13.3537 20.6744C13.2085 20.7755 13.0921 20.8548 13.0091 20.9106C12.9677 20.9385 12.9347 20.9604 12.9108 20.9761L12.8823 20.9948L12.874 21.0002C12.8721 21.0014 12.8712 21.002 12.8712 21.002L12.8633 21.007L12.8633 21.007L12.2059 21.4385C12.2057 21.4386 12.2055 21.4387 12.2053 21.4389C12.08 21.5204 11.92 21.5204 11.7947 21.4389C11.7945 21.4387 11.7943 21.4386 11.7941 21.4385L11.1367 21.007L11.1366 21.007C11.0383 20.9425 8.51588 19.2811 5.96611 16.8743C4.43097 15.424 3.20592 14.0039 2.32135 12.6545L18.0338 16.8744ZM18.0338 16.8744C19.569 15.4241 20.7941 14.0039 21.6787 12.6545M18.0338 16.8744L21.6787 12.6545M1.03276 10.1676L1.03234 10.1665C0.675591 9.21202 0.500029 8.28487 0.500029 7.40512V7.40374C0.497435 6.46794 0.681139 5.55948 1.0413 4.70289L1.03276 10.1676ZM1.03276 10.1676C1.32846 10.9646 1.76256 11.801 2.32119 12.6543L1.03276 10.1676ZM21.6787 12.6545C22.2368 11.8021 22.6687 10.9652 22.9677 10.1665L21.6787 12.6545Z" fill="white" stroke="black"/>
</svg>
