<svg width="32" height="32" viewBox="0 0 32 32" fill="none" xmlns="http://www.w3.org/2000/svg">
<path d="M15.9999 31.9999C24.8365 31.9999 31.9999 24.8365 31.9999 15.9999C31.9999 7.16342 24.8365 0 15.9999 0C7.16342 0 0 7.16342 0 15.9999C0 24.8365 7.16342 31.9999 15.9999 31.9999Z" fill="#039BE5"/>
<path d="M7.32168 15.6535L22.7483 9.70555C23.4643 9.44688 24.0896 9.88021 23.8576 10.9629L23.859 10.9615L21.2323 23.3362C21.0376 24.2135 20.5163 24.4268 19.787 24.0135L15.787 21.0655L13.8577 22.9242C13.6443 23.1375 13.4643 23.3175 13.051 23.3175L13.335 19.2468L20.7483 12.5495C21.071 12.2655 20.6763 12.1055 20.251 12.3882L11.0897 18.1562L7.14035 16.9242C6.28302 16.6522 6.26435 16.0669 7.32168 15.6535Z" fill="white"/>
</svg>
