<svg width="32" height="32" viewBox="0 0 32 32" fill="none" xmlns="http://www.w3.org/2000/svg">
<path d="M15.9999 31.9999C24.8365 31.9999 31.9999 24.8365 31.9999 15.9999C31.9999 7.16342 24.8365 0 15.9999 0C7.16342 0 0 7.16342 0 15.9999C0 24.8365 7.16342 31.9999 15.9999 31.9999Z" fill="#4D76A1"/>
<path fill-rule="evenodd" clip-rule="evenodd" d="M15.3963 23.0179H16.6521C16.6521 23.0179 17.0314 22.9762 17.2251 22.7674C17.4033 22.5758 17.3976 22.2158 17.3976 22.2158C17.3976 22.2158 17.3731 20.5308 18.1552 20.2826C18.9261 20.0382 19.9161 21.9112 20.9654 22.6314C21.7589 23.1764 22.3618 23.0569 22.3618 23.0569L25.1675 23.0179C25.1675 23.0179 26.6352 22.9274 25.9393 21.7735C25.8823 21.6791 25.534 20.9198 23.8532 19.3597C22.094 17.7268 22.3296 17.9909 24.4488 15.1664C25.7394 13.4463 26.2553 12.3962 26.0942 11.9464C25.9404 11.518 24.9912 11.6312 24.9912 11.6312L21.8322 11.6509C21.8322 11.6509 21.598 11.6189 21.4243 11.7228C21.2546 11.8246 21.1454 12.0619 21.1454 12.0619C21.1454 12.0619 20.6454 13.393 19.9785 14.525C18.5719 16.9137 18.0094 17.0397 17.7795 16.8914C17.2447 16.5457 17.3782 15.5027 17.3782 14.7617C17.3782 12.4469 17.7293 11.4818 16.6946 11.2319C16.3512 11.1489 16.0985 11.0941 15.2203 11.0853C14.0931 11.0736 13.139 11.0887 12.5988 11.3534C12.2395 11.5294 11.9622 11.9216 12.1311 11.9441C12.3399 11.972 12.8128 12.0716 13.0635 12.413C13.3872 12.8534 13.3758 13.8425 13.3758 13.8425C13.3758 13.8425 13.5617 16.5674 12.9414 16.906C12.5156 17.1381 11.9314 16.6641 10.6773 14.497C10.0347 13.387 9.54959 12.16 9.54959 12.16C9.54959 12.16 9.45604 11.9307 9.28919 11.808C9.08669 11.6594 8.80375 11.6121 8.80375 11.6121L5.80184 11.6318C5.80184 11.6318 5.3512 11.6443 5.18577 11.8403C5.0386 12.0145 5.17408 12.375 5.17408 12.375C5.17408 12.375 7.52427 17.8734 10.1853 20.6443C12.6254 23.1847 15.3963 23.0179 15.3963 23.0179Z" fill="white"/>
</svg>
