<svg width="32" height="32" viewBox="0 0 32 32" fill="none" xmlns="http://www.w3.org/2000/svg">
<path d="M16.0039 0H15.9959C7.17398 0 0 7.17597 0 15.9999C0 19.4999 1.128 22.7439 3.04599 25.3779L1.052 31.3219L7.20198 29.3559C9.73197 31.0319 12.75 31.9999 16.0039 31.9999C24.8259 31.9999 31.9999 24.8219 31.9999 15.9999C31.9999 7.17798 24.8259 0 16.0039 0Z" fill="#4CAF50"/>
<path d="M25.313 22.5948C24.927 23.6848 23.395 24.5888 22.173 24.8528C21.337 25.0308 20.245 25.1728 16.569 23.6488C11.8671 21.7008 8.83911 16.9229 8.60311 16.6129C8.37711 16.3029 6.70312 14.0829 6.70312 11.787C6.70312 9.491 7.86912 8.37302 8.33911 7.89302C8.72511 7.49903 9.3631 7.31903 9.9751 7.31903C10.1731 7.31903 10.3511 7.32903 10.5111 7.33703C10.9811 7.35703 11.2171 7.38503 11.5271 8.12702C11.9131 9.05701 12.8531 11.353 12.9651 11.589C13.0791 11.825 13.1931 12.145 13.0331 12.455C12.8831 12.775 12.7511 12.917 12.5151 13.189C12.2791 13.4609 12.0551 13.6689 11.8191 13.9609C11.6031 14.2149 11.3591 14.4869 11.6311 14.9569C11.9031 15.4169 12.8431 16.9509 14.2271 18.1829C16.013 19.7729 17.461 20.2809 17.979 20.4969C18.365 20.6569 18.825 20.6189 19.107 20.3189C19.465 19.9329 19.907 19.2929 20.357 18.6629C20.677 18.2109 21.081 18.1549 21.505 18.3149C21.937 18.4649 24.223 19.5949 24.693 19.8289C25.163 20.0649 25.473 20.1769 25.587 20.3749C25.699 20.5729 25.699 21.5028 25.313 22.5948Z" fill="#FAFAFA"/>
</svg>
