<svg width="30" height="29" viewBox="0 0 30 29" fill="none" xmlns="http://www.w3.org/2000/svg">
<path fill-rule="evenodd" clip-rule="evenodd" d="M11.5 1.3H10.5448L14.9884 21.5428L14.0116 21.7572L9.52102 1.3H9.5V1H11.5V1.3ZM15 26.65C15 27.4784 14.3284 28.15 13.5 28.15C12.6716 28.15 12 27.4784 12 26.65C12 25.8216 12.6716 25.15 13.5 25.15C14.3284 25.15 15 25.8216 15 26.65ZM25 26.65C25 27.4784 24.3284 28.15 23.5 28.15C22.6716 28.15 22 27.4784 22 26.65C22 25.8216 22.6716 25.15 23.5 25.15C24.3284 25.15 25 25.8216 25 26.65ZM14.0448 1.3L18.4884 21.5428L17.5116 21.7572L13.021 1.3H13V1H15V1.3H14.0448ZM21.9884 21.5428L17.5448 1.3H18.5V1H16.5V1.3H16.521L21.0116 21.7572L21.9884 21.5428ZM21.0448 1.3L25.4884 21.5428L24.5116 21.7572L20.021 1.3H20V1H22V1.3H21.0448ZM1 2.15C0.447715 2.15 0 2.59772 0 3.15C0 3.70228 0.447715 4.15 1 4.15H4.6957L9.02326 23.8644C9.12396 24.3232 9.53033 24.65 10 24.65H29C29.5523 24.65 30 24.2023 30 23.65C30 23.0977 29.5523 22.65 29 22.65H10.8043L6.47674 2.93559C6.37604 2.47685 5.96967 2.15 5.5 2.15H1Z" fill="black"/>
</svg>
